<svg width="77" height="125" viewBox="0 0 77 125" fill="none" xmlns="http://www.w3.org/2000/svg">
<g clip-path="url(#clip0_505_823)">
<path d="M-69.8961 66.3835C-61.2373 63.3487 -52.5717 60.4207 -44.0548 56.9975C-35.6759 53.6058 -27.6825 49.334 -20.2074 44.253C-5.97959 34.5445 6.6065 22.3255 22.1287 14.5258C29.8666 10.4322 38.411 8.08597 47.1671 7.65057C47.3106 7.66073 47.4476 7.71549 47.5591 7.80728C47.6705 7.89906 47.751 8.0233 47.7891 8.16264C47.8273 8.30198 47.8212 8.44948 47.7718 8.58467C47.7225 8.71986 47.6322 8.83597 47.5137 8.91684L24.8818 19.77C17.339 23.4055 9.95712 27.2248 2.32515 30.8011C1.25383 31.4196 0.214912 29.6677 1.35475 29.1203C8.88562 25.464 16.543 22.122 24.151 18.5042L46.8428 7.75482C47.0465 8.10758 47.0647 8.56738 47.1773 9.00037C30.461 9.35535 15.9486 18.9515 3.50749 29.2331C-3.35194 34.9087 -10.0058 40.7977 -17.2471 46.0022C-24.4611 51.0995 -32.2336 55.3549 -40.415 58.6865C-49.8598 62.4957 -59.5218 65.746 -69.3516 68.4209C-70.5993 68.7815 -71.0719 66.8687 -69.8602 66.4458L-69.8961 66.3835Z" fill="black" fill-opacity="0.1"/>
<path d="M-68.2244 65.806C-54.0329 63.8376 -42.0283 54.0846 -27.2591 55.0198C-20.114 55.7557 -13.083 57.3846 -6.32974 59.8686C0.761088 62.2069 7.71339 64.9552 14.4921 68.0995C22.1036 71.7085 29.5073 75.7476 36.6673 80.1971C36.8348 80.2985 36.9654 80.4513 37.0399 80.6327C37.1143 80.8141 37.1286 81.0144 37.0805 81.2039C37.0324 81.3933 36.9246 81.5616 36.7731 81.684C36.6215 81.8063 36.4344 81.876 36.2396 81.8827C28.6538 81.7803 20.8619 81.7968 14.053 78.0918C7.2441 74.3868 2.32611 67.8194 -4.46557 64.049C-4.64902 63.9458 -4.78449 63.7739 -4.84229 63.5712C-4.90008 63.3685 -4.8754 63.1516 -4.77369 62.9681C-4.67198 62.7847 -4.50158 62.6497 -4.29995 62.5929C-4.09832 62.5362 -3.882 62.5623 -3.69856 62.6655C2.81712 66.2908 8.01625 71.7276 14.4117 75.4777C20.8071 79.2278 28.7729 79.9408 36.3209 80.1204C36.1743 80.6754 36.0072 81.2423 35.8726 81.818C29.6378 78.0473 23.1753 74.6724 16.5235 71.7131C9.77494 68.602 2.85669 65.8806 -4.19726 63.5621C-10.9178 61.1374 -17.8459 59.348 -24.8909 58.2176C-31.8772 57.4425 -38.9368 58.3418 -45.489 60.8415C-52.8451 63.3732 -60.0857 66.7235 -67.945 67.194C-68.7102 67.2484 -68.8972 65.973 -68.1353 65.8652L-68.2244 65.806Z" fill="black" fill-opacity="0.1"/>
<path d="M-35.3868 54.7875C-29.1405 56.5171 -22.7737 57.7622 -16.343 58.5115C-10.3745 59.0536 -4.36393 58.5943 1.44177 57.1523C12.217 54.5003 22.2321 49.4374 32.98 46.6905C38.8217 45.0699 44.9322 44.626 50.9602 45.3844L50.4741 47.1592C34.9231 42.9892 18.4257 44.6444 4.07372 51.8147C-0.00220953 53.8391 -3.82221 56.3418 -7.30673 59.2705C-7.41969 59.3904 -7.55723 59.4841 -7.71 59.5453C-7.86277 59.6066 -8.02716 59.6339 -8.19185 59.6254C-8.35654 59.6168 -8.51766 59.5726 -8.66419 59.4959C-8.81073 59.4192 -8.93922 59.3118 -9.04083 59.1808C-9.14245 59.0499 -9.21478 58.8986 -9.25292 58.7374C-9.29106 58.5762 -9.29409 58.4089 -9.26178 58.2468C-9.22948 58.0848 -9.16262 57.9319 -9.06577 57.7986C-8.96893 57.6653 -8.84442 57.5548 -8.70072 57.4746C4.3796 47.3907 20.625 42.3047 37.1536 43.1189C41.8046 43.3718 46.4198 44.1103 50.9243 45.3222C52.0972 45.641 51.5804 47.2674 50.4381 47.0969C39.1609 45.5013 28.2669 49.6606 17.924 53.5847C7.58104 57.5089 -3.35362 61.3596 -14.8478 60.3873C-21.9341 59.5715 -28.938 58.1246 -35.7762 56.0637C-36.644 55.8453 -36.2905 54.5069 -35.4227 54.7252L-35.3868 54.7875Z" fill="black" fill-opacity="0.1"/>
<path d="M-69.3025 66.3176C-64.3572 65.0233 -59.1774 64.8702 -54.1506 65.8698C-48.8948 66.7561 -43.7215 68.092 -38.6873 69.8627C-27.3136 73.6713 -15.7492 77.2867 -4.74917 82.1134C1.07226 84.4777 6.54214 87.6425 11.5027 91.5164C12.0648 91.9666 11.2814 92.7508 10.7399 92.2888C6.33426 88.8596 1.46422 86.0807 -3.72077 84.0374C-8.87125 81.9202 -14.268 80.4709 -19.5372 78.6714L-36.679 72.7703C-41.4817 71.0511 -46.3805 69.6203 -51.3493 68.4856C-54.2138 67.8447 -57.1281 67.4624 -60.0573 67.3434C-62.9694 67.3308 -65.8758 67.565 -68.7455 68.0435C-68.9593 68.0743 -69.1774 68.0251 -69.3583 67.9054C-69.5393 67.7857 -69.6706 67.6038 -69.7272 67.3941C-69.7839 67.1845 -69.7619 66.9617 -69.6656 66.7681C-69.5693 66.5746 -69.4053 66.4237 -69.2047 66.3441L-69.3025 66.3176Z" fill="black" fill-opacity="0.1"/>
</g>
<defs>
<clipPath id="clip0_505_823">
<rect width="132.34" height="66.6102" fill="white" transform="matrix(-0.866025 0.5 0.5 0.866025 43.6099 0.823242)"/>
</clipPath>
</defs>
</svg>
